<svg preserveAspectRatio="xMidYMid meet" data-bbox="0 0 8486 8486" viewBox="0 0 8486 8486" height="80" width="80" xmlns="http://www.w3.org/2000/svg" shape-rendering="geometricPrecision" text-rendering="geometricPrecision" image-rendering="optimizeQuality" fill-rule="evenodd" clip-rule="evenodd" data-type="color" role="presentation" aria-hidden="true" aria-label="">
    <g>
        <path d="M4243 0C1900 0 0 1900 0 4243s1900 4243 4243 4243 4243-1900 4243-4243C8483 1901 6585 3 4243 0zm0 8202c-2187 0-3960-1773-3960-3960S2056 282 4243 282s3960 1773 3960 3960c-2 2186-1774 3957-3960 3960z" fill="#c2ad72" data-color="1"></path>
        <path d="M4243 566C2212 566 566 2212 566 4243s1646 3677 3677 3677 3677-1646 3677-3677c-2-2030-1647-3675-3677-3677zm0 7071c-1875 0-3394-1520-3394-3394 0-1875 1520-3394 3394-3394 1875 0 3394 1520 3394 3394-2 1874-1521 3392-3394 3394z" fill="#c2ad72" data-color="1"></path>
        <path fill="#a18f5f" d="M1556 4101v283H990v-283h566z" data-color="2"></path>
        <path fill="#a18f5f" d="M7496 4101v283h-566v-283h566z" data-color="2"></path>
        <path fill="#a18f5f" d="M1844.923 5463.963l141.428 245.03-490.06 282.857-141.428-245.03 490.06-282.857z" data-color="2"></path>
        <path fill="#a18f5f" d="M6989.193 2493.776l141.428 245.03-490.06 282.856-141.428-245.03 490.06-282.856z" data-color="2"></path>
        <path fill="#a18f5f" d="M1496.403 2493.72l490.06 282.857-141.429 245.03-490.06-282.857 141.429-245.03z" data-color="2"></path>
        <path fill="#a18f5f" d="M6640.596 5462.951l490.06 282.856-141.429 245.03-490.06-282.856 141.429-245.03z" data-color="2"></path>
        <path fill="#a18f5f" d="M2738.368 1354.987l282.856 490.06-245.03 141.428-282.856-490.06 245.03-141.428z" data-color="2"></path>
        <path fill="#a18f5f" d="M4384 990v566h-283V990h283z" data-color="2"></path>
        <path fill="#a18f5f" d="M5746.428 1354.683l245.03 141.429-282.856 490.06-245.03-141.429 282.856-490.06z" data-color="2"></path>
        <path fill="#c2ad72" d="M1137.33 3264.003l409.697 109.77-73.215 273.264-409.698-109.77 73.215-273.264z" data-color="1"></path>
        <path fill="#c2ad72" d="M7010.425 4837.748l409.698 109.77-73.215 273.265-409.698-109.77 73.215-273.265z" data-color="1"></path>
        <path fill="#c2ad72" d="M2042.74 1842.57l299.925 299.925-200.047 200.047-299.926-299.926 200.047-200.047z" data-color="1"></path>
        <path fill="#c2ad72" d="M3536.54 1064.2l109.763 409.7-273.266 73.21-109.763-409.7 273.265-73.21z" data-color="1"></path>
        <path fill="#c2ad72" d="M4947.646 1065.133l273.263 73.216-109.77 409.698-273.264-73.216 109.77-409.698z" data-color="1"></path>
        <path fill="#c2ad72" d="M6442.585 1843.094l200.047 200.047-299.925 299.926-200.047-200.047 299.925-299.926z" data-color="1"></path>
        <path fill="#c2ad72" d="M7347.92 3263.784l73.211 273.266-409.7 109.763-73.211-273.265 409.7-109.764z" data-color="1"></path>
        <path fill="#c2ad72" d="M1473.744 4837.64l73.211 273.266-409.7 109.763-73.21-273.265 409.7-109.764z" data-color="1"></path>
        <path d="M4843 1916c-1286-331-2597 443-2928 1728-157 609-69 1256 245 1801 41 66 128 87 195 46 64-39 86-121 50-187-585-1015-237-2312 778-2897s2312-237 2897 778c277 481 355 1051 216 1589-20 76 26 153 102 172 76 20 153-26 172-102 331-1286-443-2597-1729-2928z" fill="#c2ad72" data-color="1"></path>
        <path d="M6312 5265L4756 3992c-4-3-9-5-13-7-142-277-482-387-759-245s-387 482-245 759c91 178 270 295 470 306l1966 702c15 6 32 8 48 8 78 0 141-63 141-141 0-42-19-83-52-109zm-2069-739c-156 0-283-127-283-283s127-283 283-283 283 127 283 283-127 283-283 283zm385 129c78-73 134-167 160-271l713 583-873-311z" fill="#a18f5f" data-color="2"></path>
        <path d="M4808 5657H3677c-391 0-707 317-707 707 0 391 317 707 707 707h1131c391 0 707-317 707-707 0-391-317-707-707-707zm0 1131H3677c-234 0-424-190-424-424s190-424 424-424h1131c234 0 424 190 424 424s-190 424-424 424z" fill="#a18f5f" data-color="2"></path>
        <path d="M3960 6223h-283c-78 0-141 63-141 141s63 141 141 141h283c78 0 141-63 141-141s-63-141-141-141z" fill="#a18f5f" data-color="2"></path>
        <path d="M4808 6223h-283c-78 0-141 63-141 141s63 141 141 141h283c78 0 141-63 141-141s-63-141-141-141z" fill="#a18f5f" data-color="2"></path>
    </g>
</svg>