<svg preserveAspectRatio="xMidYMid meet" data-bbox="0 2115 152704 145217" viewBox="0 0 154795 147331" height="80" width="80" xmlns="http://www.w3.org/2000/svg" shape-rendering="geometricPrecision" text-rendering="geometricPrecision" image-rendering="optimizeQuality" fill-rule="evenodd" clip-rule="evenodd" data-type="ugc" role="presentation" aria-hidden="true" aria-label="">
    <g>
        <path d="M99049 13664c-11627 0-22153 4713-29772 12332S56945 44141 56945 55768s4713 22153 12332 29772 18145 12332 29772 12332 22153-4713 29772-12332 12332-18145 12332-29772-4713-22153-12332-29772-18145-12332-29772-12332zM4258 132427h2129v8517c0 3528 2860 6388 6388 6388h12775c3528 0 6388-2860 6388-6388v-8517h51101v8517c0 3528 2860 6388 6388 6388h12775c3528 0 6388-2860 6388-6388v-8517h2129c2352 0 4258-1907 4258-4259V99338c6400-2341 12140-6051 16866-10776 8393-8393 13584-19987 13584-32794s-5191-24402-13584-32794c-8393-8393-19987-13584-32794-13584s-24402 5191-32794 13584c-5491 5490-9611 12351-11804 20025H31661c-4514 1-8536 2850-10037 7107L9083 85741C3877 86507 14 90967 0 96230v31938c0 2352 1907 4259 4258 4259zm106461-31761v27503h-6388v-4258c0-2352-1907-4258-4259-4258h-4258c-2352 0-4258 1907-4258 4258v4258H23421v-4258c0-2352-1907-4258-4258-4258h-4259c-2352 0-4258 1907-4258 4258v4258H4258V96231c0-3528 2860-6388 6388-6388h56941c4307 3979 9370 7152 14949 9278-1031 1644-1621 3579-1626 5626 0 3528 2860 6388 6388 6388h12775c3528 0 6388-2860 6388-6388v-3190c1443-232 2863-530 4258-891zM63524 85584H13652l11990-34068c902-2551 3313-4257 6019-4258h21790c-259 1398-456 2819-587 4258h-3892c-2352 0-4259 1907-4259 4258v4258c0 2352 1907 4259 4259 4259h4481c1488 8010 5035 15298 10071 21292zm38678 16457c-1042 70-2094 106-3153 106-4247 0-8361-571-12269-1641-1002 1128-1611 2613-1611 4241 0 1176 953 2129 2129 2129h12775c1176 0 2129-953 2129-2129v-2706zM52864 60034c-128-1402-194-2823-194-4258h-3699v4258h3893zm-25185 80910c0 1176-953 2129-2129 2129H12775c-1176 0-2129-953-2129-2129v-8517h17034v8517zm-8517-12775h-4259v-4258h4259v4258zm85169 12775c0 1176-953 2129-2129 2129H89427c-1176 0-2129-953-2129-2129v-8517h17034v8517zm-4259-12775h-4258v-4258h4258v4258z" fill="#c2ad72"></path>
        <path d="M38326 51516h-3643c-2707 3-5119 1708-6026 4258l-7993 22715c-390 1109 193 2325 1302 2716 1110 390 2326-193 2716-1302l7993-22706c300-852 1105-1422 2008-1422h3643c1176 0 2129-953 2129-2129s-953-2129-2129-2129z" fill="#c2ad72"></path>
        <path d="M14904 111134h12775c3528 0 6388-2860 6388-6388-7-5877-4769-10639-10646-10646h-8517c-3528 0-6388 2860-6388 6388v4258c0 3528 2860 6388 6388 6388zm-2129-10646c0-1176 953-2129 2129-2129h8517c3528 0 6388 2860 6388 6388 0 1176-953 2129-2129 2129H14905c-1176 0-2129-953-2129-2129v-4258z" fill="#c2ad72"></path>
        <path d="M42584 123910h29809c2352 0 4258-1907 4258-4258v-8517c0-2352-1907-4258-4258-4258H42584c-2352 0-4258 1906-4258 4258v8517c0 2352 1907 4258 4258 4258zm0-12775h29809v8517H42584v-8517z" fill="#a18f5f"></path>
        <path d="M99049 23297c-8967 0-17085 3635-22961 9510-5876 5876-9510 13994-9510 22961s3635 17085 9510 22961c5876 5876 13994 9510 22961 9510s17085-3634 22961-9510 9510-13994 9510-22961-3634-17085-9510-22961-13994-9510-22961-9510zm-25983 6489c6650-6650 15836-10763 25983-10763s19333 4113 25983 10763 10763 15836 10763 25983-4113 19333-10763 25983-15836 10763-25983 10763-19333-4113-25983-10763-10763-15836-10763-25983 4113-19333 10763-25983z" fill-rule="nonzero" fill="#c2ad72"></path>
        <path d="M99049 56594h0c6238 0 11295-5057 11295-11295s-5057-11296-11295-11296-11295 5057-11295 11296c0 6238 5057 11295 11295 11295zm0 0c9287 0 16816 8040 16816 17958H82232c0-9918 7529-17958 16816-17958z" fill="none" stroke="#a18f5f" stroke-width="4274" stroke-linecap="round" stroke-linejoin="round"></path>
        <path d="M124581 102959c17327-9374 28123-27490 28123-47190 0-29632-24022-53654-53654-53654-21181 0-40380 12461-49005 31807" fill="none" stroke-dasharray="4274.002107 12822.00632" stroke="#a18f5f" stroke-width="4274" stroke-linecap="round" stroke-linejoin="round"></path>
    </g>
</svg>