<svg width="1920" height="300" viewBox="0 0 1920 300" xmlns="http://www.w3.org/2000/svg" preserveAspectRatio="xMidYMid slice">
  <!-- Rounded rectangular wave pattern -->
  <path 
    d="M 0,150 
       L 120,150 Q 150,150 150,180 L 150,220 Q 150,250 180,250 L 320,250 Q 350,250 350,220 L 350,180 Q 350,150 380,150
       L 470,150 Q 500,150 500,120 L 500,80 Q 500,50 530,50 L 670,50 Q 700,50 700,80 L 700,120 Q 700,150 730,150
       L 820,150 Q 850,150 850,180 L 850,220 Q 850,250 880,250 L 1020,250 Q 1050,250 1050,220 L 1050,180 Q 1050,150 1080,150
       L 1170,150 Q 1200,150 1200,120 L 1200,80 Q 1200,50 1230,50 L 1370,50 Q 1400,50 1400,80 L 1400,120 Q 1400,150 1430,150
       L 1520,150 Q 1550,150 1550,180 L 1550,220 Q 1550,250 1580,250 L 1720,250 Q 1750,250 1750,220 L 1750,180 Q 1750,150 1780,150
       L 1920,150" 
    stroke="#cfb270" 
    stroke-width="4" 
    fill="none"
  />
</svg>

