<svg preserveAspectRatio="xMidYMid meet" data-bbox="1.083 0.308 30366.549 39570.824" viewBox="1.083 0.308 30366.549 39570.824" height="80" width="80" xmlns="http://www.w3.org/2000/svg" shape-rendering="geometricPrecision" text-rendering="geometricPrecision" image-rendering="optimizeQuality" fill-rule="evenodd" clip-rule="evenodd" data-type="color" role="presentation" aria-hidden="true" aria-label="">
    <g>
        <path d="M6510 20757c-10-13-19-26-28-39-43-41-283-150-587-287-708-320-1664-753-2476-1712-434-513-864-478-1281-444-599 49-1185 97-1855-458-280-232-142-506 90-786s469-460 749-228c257 213 581 187 913 160 747-61 1515-124 2388 907 619 732 1420 1094 2013 1362 59 27 117 53 173 79 443-1784 1415-5737 1376-6588-76-1633 883-2264 1979-2985 1009-663 2173-1429 2258-3557 60-1494 765-2376 1398-3167 172-215 337-421 474-632 198-304 549-274 853-77 304 198 446 488 248 792-160 246-352 486-552 735-504 631-1067 1334-1110 2400-112 2802-1579 3766-2850 4602-762 501-1429 940-1387 1832 50 1077-1043 5474-1466 7179-59 236-153 214-172 264 974 1341 2585 2059 3894 2641 764 340 1444 643 1926 1021 384-580 917-1004 1517-1483 741-590 1605-1279 2367-2607-394-264-828-531-1248-789-1117-686-2145-1319-2421-1965-258-605-89-1094 695-1428 1369-583 1463-1013 1576-1522 164-743 351-1591 1942-2733 668-479 1260-1106 1820-1700 999-1057 1908-2020 3188-2196 30-4 72-13 124-25 589-140 1047-676 1350-1258 318-609 460-1226 419-1524-1-7 0 4-3-10-84-354 135-709 489-793s605 172 689 526c8 33 120 42 128 101 70 512-116 1459-558 2307-456 875-1189 1690-2210 1933-71 17-155 32-253 46-816 112-1574 914-2405 1795-600 636-1235 1308-2011 1865-1179 846-1308 1435-1422 1951-185 839-342 1552-2164 2368 321 284 997 700 1717 1142 1110 682 2312 1421 2883 2198 139 189 298 361 474 553 559 608 1274 1385 2386 3634 161 325-10 561-335 721-325 161-683 186-843-140-1027-2077-1671-2778-2175-3325-200-218-381-414-566-666-59-81-133-164-217-248-853 1433-1789 2179-2595 2821-983 783-1728 1377-1640 3273 42 893-560 1337-1258 1852-885 653-2012 1484-649 4195 368 733 908 1839 1255 2987h1c374 1238 522 2532 31 3538-159 327-523 334-850 175s-493-425-334-752c318-651 182-1618-109-2581h1l-1-2c-317-1051-823-2087-1168-2774-1862-3703-234-4904 1045-5847 393-290 732-540 723-735-24-516-4-960 54-1348-12-50-18-102-17-155 3-355-827-725-1882-1194-1489-663-3331-1483-4506-3192z" fill="#c2ad72" fill-rule="nonzero" data-color="1"></path>
        <path d="M4758 11749c-610 1479-596 1974-588 2258s13 463-168 765c-199 331-613 683-1735 1636-258 219-550 467-689 586-758 647 104 2979 969 5316 856 2314 1713 4632 1126 6057-154 373-158 501-94 527 195 81 542 113 917 148 1342 125 2943 275 3203 2370 62 501-311 1280-720 2134-351 733-734 1532-793 2012-161 1310 2235 2154 5167 2515 1942 239 4103 239 5991 7 1827-224 3366-653 4134-1276 451-366 534-850 44-1455-349-430-273-789 123-1111 244-198 651-309 1151-445 665-181 1543-421 1948-826 338-338 257-958-939-2155-442-442-2184-2199-3435-3629-770-881-1355-1674-1390-2083-24-292 146-555 403-662 436-218 1342-408 2474-646 2594-545 6553-1376 6740-2278 54-266 263-462 513-513 217-51-49-1542-449-3473-137-660-299-1383-465-2121-567-2520-1172-5211-1088-7008 1-11 1-21 0-28-19-595-762-1816-1624-2914-830-1058-1699-1953-2034-1973-2133 71-4179 776-5485 1225-752 259-1289 444-1636 415-991-82-1514-899-2106-1820-591-921-1275-1986-2537-1986-26 0-51-1-76-4-1068-30-1330 184-1342 521-8 235 41 560 94 911 58 382 120 791 129 1255 25 1263-158 2044-549 2589-418 583-997 834-1766 1057-275 80-517 139-732 182-229 47-422 76-589 95-1272 144-1333 540-1460 1369-45 294-96 627-191 1044-51 226-111 452-181 673-70 222-158 466-270 736zm-1900 2294c-11-386-30-1059 685-2794 86-208 162-420 229-633s118-400 155-565c75-330 126-660 170-951 231-1504 341-2222 2618-2480 143-16 300-40 471-75 185-38 393-88 629-157 501-145 865-290 1061-563 223-311 326-848 307-1796-7-347-65-729-119-1085-61-402-117-775-104-1148C9000 666 9529-58 11655 4c12-1 23-1 35-1 1979 0 2872 1391 3644 2594 405 630 763 1189 1107 1218 72 6 501-142 1101-348 1377-474 3535-1218 5885-1293h3c29-1 56-1 79 0 732 34 1981 1156 3014 2472 1004 1280 1873 2796 1902 3686 1 46 1 88 0 126-76 1625 509 4227 1057 6663 165 734 327 1453 470 2147 491 2372 685 4292-203 4872-853 1520-4900 2370-7620 2941-628 132-1174 246-1543 327 191 237 463 555 776 913 1185 1355 2933 3116 3378 3562 1915 1915 1791 3161 934 4018-648 647-1719 940-2530 1161l-197 54c581 1066 272 1972-637 2709-974 790-2752 1312-4803 1564-1990 244-4266 244-6311-7-3643-448-6590-1748-6315-3982 84-680 518-1586 916-2419 320-669 613-1279 597-1408-130-1046-1155-1142-2014-1222-480-45-924-86-1298-241-801-330-1162-931-621-2241 391-948-379-3028-1147-5104-1023-2766-2044-5526-588-6768 376-321 543-462 694-591 1002-851 1372-1166 1457-1307 15-25-16-6-17-55z" fill="#a18f5f" fill-rule="nonzero" data-color="2"></path>
        <path d="M24846 12879c257-257 674-257 932 0 257 257 257 674 0 932l-4491 4491c-257 257-674 257-932 0-257-257-257-674 0-932l4491-4491z" fill="#a18f5f" fill-rule="nonzero" data-color="2"></path>
        <path d="M20354 13810c-257-257-257-674 0-932 257-257 674-257 932 0l4491 4491c257 257 257 674 0 932-257 257-674 257-932 0l-4491-4491z" fill="#a18f5f" fill-rule="nonzero" data-color="2"></path>
        <path d="M19035 29131c257-257 674-257 932 0 257 257 257 674 0 932l-4491 4491c-257 257-674 257-932 0-257-257-257-674 0-932l4491-4491z" fill="#a18f5f" fill-rule="nonzero" data-color="2"></path>
        <path d="M14543 30063c-257-257-257-674 0-932 257-257 674-257 932 0l4491 4491c257 257 257 674 0 932-257 257-674 257-932 0l-4491-4491z" fill="#a18f5f" fill-rule="nonzero" data-color="2"></path>
    </g>
</svg>