<svg preserveAspectRatio="xMidYMid meet" data-bbox="-1 -1.25 10243 10245.25" viewBox="-1 -1.25 10243 10245.25" height="80" width="80" xmlns="http://www.w3.org/2000/svg" shape-rendering="geometricPrecision" text-rendering="geometricPrecision" image-rendering="optimizeQuality" fill-rule="evenodd" clip-rule="evenodd" data-type="color" role="presentation" aria-hidden="true" aria-label="">
    <g>
        <path d="M6250 4528l1334 949c59 42 139 42 198 0l1334-949c278-197 444-516 445-856V1652c0-68-40-130-102-157L7752 757c-43-19-92-19-135 0l-1707 738c-62 27-103 89-102 157v2020c1 340 167 659 444 856zm-104-2764l1537-664 1537 664v1908c-1 230-114 446-302 579l-1235 878-1235-879c-188-133-301-348-302-578V1764z" fill="#a18f5f" data-color="1"></path>
        <path d="M7239 4063c74 55 178 42 236-30l1366-1707c59-74 47-181-27-240s-181-47-240 27L7311 3691l-550-413c-49-37-113-44-170-20-56 24-95 76-102 137s18 120 67 157l683 512z" fill="#a18f5f" data-color="1"></path>
        <path d="M341 9049h171v683c0 283 229 512 512 512h1024c283 0 512-229 512-512v-683h4098v683c0 283 229 512 512 512h1024c283 0 512-229 512-512v-683h171c189 0 341-153 341-341V6147c1-247-107-483-295-644l587-418c458-325 730-851 732-1413V1203c0-68-40-130-102-157L7750 13c-43-19-92-19-135 0L5223 1046c-62 27-103 89-102 157v675H2538c-362 0-685 229-805 570L727 5305C310 5366 0 5724-1 6146v2561c0 189 153 341 341 341zm1878 683c0 94-76 171-171 171H1024c-94 0-171-76-171-171v-683h1366v683zm-683-1024h-341v-341h341v341zm6829 1024c0 94-76 171-171 171H7170c-94 0-171-76-171-171v-683h1366v683zm-341-1024h-341v-341h341v341zM5463 1316l2220-959 2220 959v2356c-2 451-221 873-589 1134L7683 5968 6052 4807c-368-261-587-683-589-1134V1316zm2561 5002c94 0 171 76 171 171v341c0 94-76 171-171 171H7000c-94 0-171-76-171-171 0-283 229-512 512-512h683zM5121 2903v341H3926v-341h1195zm0-341h-341v-341h341v341zm-3066 0c72-205 266-341 483-341h1900v341h-512c-189 0-341 153-341 341v341c0 189 153 341 341 341h1195v87c2 561 275 1087 732 1413l292 208H1093l961-2732zM340 6147c0-283 229-512 512-512h5773l516 367c-383 92-653 434-654 828 0 283 229 512 512 512h1024c283 0 512-229 512-512v-341c-1-211-130-400-327-476l423-301c153 92 247 257 246 436v2561h-512v-341c0-189-153-341-341-341h-341c-189 0-341 153-341 341v341H1878v-341c0-189-153-341-341-341h-341c-189 0-341 153-341 341v341H343V6148z" fill="#c2ad72" data-color="2"></path>
        <path d="M3073 2561h-292c-217 0-410 137-483 341l-641 1821c-31 89 15 186 104 218 89 31 186-15 218-104l641-1821c24-68 89-114 161-114h292c94 0 171-76 171-171 0-94-76-171-171-171z" fill="#c2ad72" data-color="2"></path>
        <path d="M1195 7342h1024c283 0 512-229 512-512-1-471-382-853-854-854h-683c-283 0-512 229-512 512v341c0 283 229 512 512 512zm-171-854c0-94 76-171 171-171h683c283 0 512 229 512 512 0 94-76 171-171 171H1195c-94 0-171-76-171-171v-341z" fill="#c2ad72" data-color="2"></path>
        <path d="M3415 8366h2390c189 0 341-153 341-341v-683c0-189-153-341-341-341H3415c-189 0-341 153-341 341v683c0 189 153 341 341 341zm0-1024h2390v683H3415v-683z" fill="#c2ad72" data-color="2"></path>
    </g>
</svg>