<svg preserveAspectRatio="xMidYMid meet" data-bbox="0 0 5750 4982" viewBox="0 0 5750 4982" height="80" width="80" xmlns="http://www.w3.org/2000/svg" shape-rendering="geometricPrecision" text-rendering="geometricPrecision" image-rendering="optimizeQuality" fill-rule="evenodd" clip-rule="evenodd" data-type="color" role="presentation" aria-hidden="true" aria-label="">
    <g>
        <path d="M3080 3153c46 0 83 37 83 83s-37 83-83 83H1409c-95 0-181-39-243-101s-101-148-101-243V1899c0-95 39-181 101-243s148-101 243-101h1722c95 0 181 39 243 101s101 148 101 243v899c0 46-37 83-83 83s-83-37-83-83v-899c0-49-20-94-53-126-32-32-77-53-126-53H1408c-49 0-94 20-126 53-32 32-53 77-53 126v1076c0 49 20 94 53 126 32 32 77 53 126 53h1671z" fill="#c2ad72" fill-rule="nonzero" data-color="1"></path>
        <path d="M2854 2874c-32-32-32-85 0-117s85-32 117 0c270 272 431 233 571 199 22-5 44-11 66-15v-24c0-59 24-112 63-150 39-39 92-63 151-63h573c59 0 112 24 150 63 39 39 63 92 63 150v2h1059c46 0 83 37 83 83 0 20-7 38-19 52l-238 344c-16 23-42 36-68 36h-819c-7 46-29 87-60 118-2 2-4 4-6 5-38 36-89 57-145 57h-573c-59 0-112-24-151-63s-63-92-63-151v-291l-27 6c-183 44-392 95-727-243zm919 59c70 12 142 49 224 132 32 33 32 85-1 117s-85 32-117-1c-37-38-72-60-106-72v293c0 13 5 25 14 34s21 14 34 14h573c12 0 23-4 31-12 1-1 2-2 2-3 9-9 14-21 14-34v-485c0-13-5-25-14-34s-21-14-34-14h-573c-13 0-25 5-34 14s-14 21-14 34v15zm834 152v184h773l127-184h-901z" fill="#a18f5f" fill-rule="nonzero" data-color="2"></path>
        <path d="M3881 3932c33-32 85-31 117 2s31 85-2 117c-202 195-438 347-694 450s-531 158-811 158c-599 0-1141-243-1533-635s-635-934-635-1533S566 1350 958 958s934-635 1533-635 1141 243 1533 635 635 934 635 1533c0 46-37 83-83 83s-83-37-83-83c0-553-224-1054-586-1416s-863-586-1416-586-1054 224-1416 586-586 863-586 1416 224 1054 586 1416 863 586 1416 586c260 0 514-50 750-145s454-236 641-416z" fill="#c2ad72" fill-rule="nonzero" data-color="1"></path>
        <path d="M4346 3892c28-36 79-44 116-16 36 28 44 79 16 116-235 312-537 559-877 729s-720 261-1110 261c-688 0-1311-279-1761-730C279 3801 0 3179 0 2491S279 1180 730 730C1181 279 1803 0 2491 0s1311 279 1761 730c451 451 730 1073 730 1761 0 18 0 43-1 74-1 27-2 52-3 74-3 46-42 80-87 78-46-3-80-42-78-87 2-25 3-48 3-69 0-16 1-39 1-69 0-642-260-1223-681-1644S3134 167 2492 167 1269 427 848 848 167 1850 167 2492s260 1223 681 1644 1002 681 1644 681c365 0 719-85 1036-244 318-158 600-389 819-680z" fill="#c2ad72" fill-rule="nonzero" data-color="1"></path>
        <path d="M1558 2141c-46 0-83-37-83-83s37-83 83-83h1422c46 0 83 37 83 83s-37 83-83 83H1558z" fill="#a18f5f" fill-rule="nonzero" data-color="2"></path>
        <path d="M1558 2510c-46 0-83-37-83-83s37-83 83-83h1422c46 0 83 37 83 83s-37 83-83 83H1558z" fill="#a18f5f" fill-rule="nonzero" data-color="2"></path>
        <path d="M1558 2514c-46 0-83-37-83-83s37-83 83-83h884c46 0 83 37 83 83s-37 83-83 83h-884z" fill="#a18f5f" fill-rule="nonzero" data-color="2"></path>
        <path d="M1558 2879c-46 0-83-37-83-83s37-83 83-83h884c46 0 83 37 83 83s-37 83-83 83h-884z" fill="#a18f5f" fill-rule="nonzero" data-color="2"></path>
    </g>
</svg>